<svg xmlns="http://www.w3.org/2000/svg" xml:space="preserve" id="Calque_1" x="0" y="0" version="1.1" viewBox="0 0 86.18 86.18">
  <style>
    .st9{fill:#eef0f3}
  </style>
  <g>
    <path fill="#0e111b" d="M75.68 86.18H10.5c-5.8 0-10.5-4.7-10.5-10.5V10.5C0 4.7 4.7 0 10.5 0h65.17c5.8 0 10.5 4.7 10.5 10.5v65.17c.01 5.8-4.7 10.51-10.49 10.51"/>
    <g>
      <g>
        <path d="M26.19 30.65h6.44v28.5h-6.44zm-.05-11.09h6.49v7.4h-6.49z" class="st9"/>
      </g>
      <g>
        <path d="m59.68 38.06-5.62 2.93-.2-.62c-.82-2.53-3.53-5.26-7.57-5.26-2.51 0-4.64 1.02-6.13 2.73v-7.5c1.84-.8 3.91-1.24 6.13-1.24 6.11 0 11.03 3.18 13.19 8.5zm.36 11.33-.18.49c-2.06 5.77-7.02 9.1-13.57 9.1-2.22 0-4.28-.42-6.13-1.2v-7.5c1.44 1.69 3.6 2.69 6.13 2.69 3.8 0 6.79-2.09 7.99-5.59l.2-.58z" class="st9"/>
        <path d="M39.39 12.36h1.56v61.46h-1.56z" class="st9"/>
      </g>
    </g>
  </g>
</svg>
